<mxfile host="app.diagrams.net" modified="2022-09-29T10:06:12.327Z" agent="5.0 (Macintosh)" etag="9_bHrw8VVKyZ1U45wnPA" version="20.3.7" type="github">
  <diagram id="6lENHsLfKsi6gzG-csDv" name="Page-1">
    <mxGraphModel dx="694" dy="918" grid="0" gridSize="10" guides="1" tooltips="1" connect="1" arrows="1" fold="1" page="1" pageScale="1" pageWidth="850" pageHeight="1100" math="0" shadow="0">
      <root>
        <mxCell id="0" />
        <mxCell id="1" parent="0" />
        <mxCell id="FU7Yq_JdQGh8Oxi3G6t7-1" value="&lt;font style=&quot;font-size: 16px;&quot;&gt;&lt;b&gt;&lt;font style=&quot;font-size: 16px;&quot;&gt;Tough Trailers Existing Network Diagram&lt;/font&gt;&lt;/b&gt;&lt;/font&gt;" style="text;html=1;strokeColor=none;fillColor=none;align=center;verticalAlign=middle;whiteSpace=wrap;rounded=0;" vertex="1" parent="1">
          <mxGeometry x="355" y="5" width="140" height="80" as="geometry" />
        </mxCell>
        <mxCell id="FU7Yq_JdQGh8Oxi3G6t7-4" value="" style="rounded=1;whiteSpace=wrap;html=1;fontSize=14;labelPosition=center;verticalLabelPosition=top;align=center;verticalAlign=bottom;" vertex="1" parent="1">
          <mxGeometry x="530" y="938" width="320" height="160" as="geometry" />
        </mxCell>
        <mxCell id="FU7Yq_JdQGh8Oxi3G6t7-5" value="&lt;font style=&quot;font-size: 24px;&quot;&gt;Key&lt;/font&gt;" style="text;html=1;strokeColor=none;fillColor=none;align=center;verticalAlign=middle;whiteSpace=wrap;rounded=0;fontSize=14;" vertex="1" parent="1">
          <mxGeometry x="660" y="890" width="60" height="30" as="geometry" />
        </mxCell>
        <mxCell id="FU7Yq_JdQGh8Oxi3G6t7-7" value="" style="fontColor=#0066CC;verticalAlign=top;verticalLabelPosition=bottom;labelPosition=center;align=center;html=1;outlineConnect=0;fillColor=#CCCCCC;strokeColor=#6881B3;gradientColor=none;gradientDirection=north;strokeWidth=2;shape=mxgraph.networks.laptop;rounded=1;fontSize=24;" vertex="1" parent="1">
          <mxGeometry x="549.09" y="970" width="81.82" height="45" as="geometry" />
        </mxCell>
        <mxCell id="FU7Yq_JdQGh8Oxi3G6t7-8" value="" style="shape=image;html=1;verticalAlign=top;verticalLabelPosition=bottom;labelBackgroundColor=#ffffff;imageAspect=0;aspect=fixed;image=https://cdn2.iconfinder.com/data/icons/css-vol-2/24/math-equal-128.png;rounded=1;fontSize=24;" vertex="1" parent="1">
          <mxGeometry x="667.5" y="970" width="45" height="45" as="geometry" />
        </mxCell>
        <mxCell id="FU7Yq_JdQGh8Oxi3G6t7-9" value="Business Laptop" style="text;html=1;strokeColor=none;fillColor=none;align=center;verticalAlign=middle;whiteSpace=wrap;rounded=0;fontSize=24;" vertex="1" parent="1">
          <mxGeometry x="750" y="977.5" width="60" height="30" as="geometry" />
        </mxCell>
        <mxCell id="FU7Yq_JdQGh8Oxi3G6t7-10" value="" style="fontColor=#0066CC;verticalAlign=top;verticalLabelPosition=bottom;labelPosition=center;align=center;html=1;outlineConnect=0;fillColor=#CCCCCC;strokeColor=#6881B3;gradientColor=none;gradientDirection=north;strokeWidth=2;shape=mxgraph.networks.desktop_pc;rounded=1;fontSize=24;" vertex="1" parent="1">
          <mxGeometry x="570" y="1030" width="30" height="60" as="geometry" />
        </mxCell>
        <mxCell id="FU7Yq_JdQGh8Oxi3G6t7-11" value="" style="shape=image;html=1;verticalAlign=top;verticalLabelPosition=bottom;labelBackgroundColor=#ffffff;imageAspect=0;aspect=fixed;image=https://cdn2.iconfinder.com/data/icons/css-vol-2/24/math-equal-128.png;rounded=1;fontSize=24;" vertex="1" parent="1">
          <mxGeometry x="655" y="1037.5" width="45" height="45" as="geometry" />
        </mxCell>
        <mxCell id="FU7Yq_JdQGh8Oxi3G6t7-13" value="&lt;div style=&quot;font-size: 19px;&quot; align=&quot;center&quot;&gt;&lt;font style=&quot;font-size: 19px;&quot;&gt;Windows 10&lt;/font&gt; &lt;font style=&quot;font-size: 19px;&quot;&gt;Desktop Computer&lt;/font&gt;&lt;/div&gt;" style="text;html=1;strokeColor=none;fillColor=none;align=center;verticalAlign=middle;whiteSpace=wrap;rounded=0;fontFamily=Helvetica;fontSize=19;" vertex="1" parent="1">
          <mxGeometry x="700" y="1049.13" width="140" height="21.74" as="geometry" />
        </mxCell>
        <mxCell id="FU7Yq_JdQGh8Oxi3G6t7-23" value="" style="group" vertex="1" connectable="0" parent="1">
          <mxGeometry x="18.76" y="129" width="287.48" height="232" as="geometry" />
        </mxCell>
        <mxCell id="FU7Yq_JdQGh8Oxi3G6t7-2" value="" style="rounded=1;whiteSpace=wrap;html=1;fontSize=14;" vertex="1" parent="FU7Yq_JdQGh8Oxi3G6t7-23">
          <mxGeometry y="60.52173913043478" width="287.48" height="171.47826086956522" as="geometry" />
        </mxCell>
        <mxCell id="FU7Yq_JdQGh8Oxi3G6t7-3" value="&lt;font style=&quot;font-size: 25px;&quot;&gt;Managing Director&lt;/font&gt;" style="text;html=1;strokeColor=none;fillColor=none;align=center;verticalAlign=middle;whiteSpace=wrap;rounded=0;fontSize=14;" vertex="1" parent="FU7Yq_JdQGh8Oxi3G6t7-23">
          <mxGeometry x="37.82631578947368" width="211.82736842105265" height="50.434782608695656" as="geometry" />
        </mxCell>
        <mxCell id="FU7Yq_JdQGh8Oxi3G6t7-15" value="" style="fontColor=#0066CC;verticalAlign=top;verticalLabelPosition=bottom;labelPosition=center;align=center;html=1;outlineConnect=0;fillColor=#CCCCCC;strokeColor=#6881B3;gradientColor=none;gradientDirection=north;strokeWidth=2;shape=mxgraph.networks.laptop;rounded=1;fontSize=24;" vertex="1" parent="FU7Yq_JdQGh8Oxi3G6t7-23">
          <mxGeometry x="166.43578947368425" y="100.86956521739131" width="82.53197754385964" height="45.391304347826086" as="geometry" />
        </mxCell>
        <mxCell id="FU7Yq_JdQGh8Oxi3G6t7-16" value="" style="fontColor=#0066CC;verticalAlign=top;verticalLabelPosition=bottom;labelPosition=center;align=center;html=1;outlineConnect=0;fillColor=#CCCCCC;strokeColor=#6881B3;gradientColor=none;gradientDirection=north;strokeWidth=2;shape=mxgraph.networks.desktop_pc;rounded=1;fontSize=24;" vertex="1" parent="FU7Yq_JdQGh8Oxi3G6t7-23">
          <mxGeometry x="75.65263157894736" y="100.86956521739131" width="45.39157894736842" height="90.78260869565217" as="geometry" />
        </mxCell>
        <mxCell id="FU7Yq_JdQGh8Oxi3G6t7-18" value="&lt;font style=&quot;font-size: 24px;&quot;&gt;2x&lt;/font&gt;" style="text;html=1;strokeColor=none;fillColor=none;align=center;verticalAlign=middle;whiteSpace=wrap;rounded=0;fontFamily=Helvetica;fontSize=17;" vertex="1" parent="FU7Yq_JdQGh8Oxi3G6t7-23">
          <mxGeometry x="5.043508771929824" y="131.1304347826087" width="60.5221052631579" height="30.26086956521739" as="geometry" />
        </mxCell>
        <mxCell id="FU7Yq_JdQGh8Oxi3G6t7-21" value="1x" style="text;html=1;strokeColor=none;fillColor=none;align=center;verticalAlign=middle;whiteSpace=wrap;rounded=0;fontFamily=Helvetica;fontSize=24;" vertex="1" parent="FU7Yq_JdQGh8Oxi3G6t7-23">
          <mxGeometry x="177.4407256140351" y="158.8695652173913" width="60.5221052631579" height="30.26086956521739" as="geometry" />
        </mxCell>
        <mxCell id="FU7Yq_JdQGh8Oxi3G6t7-24" value="" style="group" vertex="1" connectable="0" parent="1">
          <mxGeometry x="530" y="130" width="285" height="230" as="geometry" />
        </mxCell>
        <mxCell id="FU7Yq_JdQGh8Oxi3G6t7-25" value="" style="rounded=1;whiteSpace=wrap;html=1;fontSize=14;" vertex="1" parent="FU7Yq_JdQGh8Oxi3G6t7-24">
          <mxGeometry y="60" width="285" height="170" as="geometry" />
        </mxCell>
        <mxCell id="FU7Yq_JdQGh8Oxi3G6t7-26" value="&lt;font style=&quot;font-size: 25px;&quot;&gt;ICT Section&lt;/font&gt;" style="text;html=1;strokeColor=none;fillColor=none;align=center;verticalAlign=middle;whiteSpace=wrap;rounded=0;fontSize=14;" vertex="1" parent="FU7Yq_JdQGh8Oxi3G6t7-24">
          <mxGeometry x="37.5" width="210" height="50" as="geometry" />
        </mxCell>
        <mxCell id="FU7Yq_JdQGh8Oxi3G6t7-27" value="" style="fontColor=#0066CC;verticalAlign=top;verticalLabelPosition=bottom;labelPosition=center;align=center;html=1;outlineConnect=0;fillColor=#CCCCCC;strokeColor=#6881B3;gradientColor=none;gradientDirection=north;strokeWidth=2;shape=mxgraph.networks.laptop;rounded=1;fontSize=24;" vertex="1" parent="FU7Yq_JdQGh8Oxi3G6t7-24">
          <mxGeometry x="165.00000000000006" y="100" width="81.82" height="45" as="geometry" />
        </mxCell>
        <mxCell id="FU7Yq_JdQGh8Oxi3G6t7-28" value="" style="fontColor=#0066CC;verticalAlign=top;verticalLabelPosition=bottom;labelPosition=center;align=center;html=1;outlineConnect=0;fillColor=#CCCCCC;strokeColor=#6881B3;gradientColor=none;gradientDirection=north;strokeWidth=2;shape=mxgraph.networks.desktop_pc;rounded=1;fontSize=24;" vertex="1" parent="FU7Yq_JdQGh8Oxi3G6t7-24">
          <mxGeometry x="75" y="100" width="45" height="90" as="geometry" />
        </mxCell>
        <mxCell id="FU7Yq_JdQGh8Oxi3G6t7-29" value="&lt;font style=&quot;font-size: 24px;&quot;&gt;2x&lt;/font&gt;" style="text;html=1;strokeColor=none;fillColor=none;align=center;verticalAlign=middle;whiteSpace=wrap;rounded=0;fontFamily=Helvetica;fontSize=17;" vertex="1" parent="FU7Yq_JdQGh8Oxi3G6t7-24">
          <mxGeometry x="5" y="130" width="60" height="30" as="geometry" />
        </mxCell>
        <mxCell id="FU7Yq_JdQGh8Oxi3G6t7-30" value="2x" style="text;html=1;strokeColor=none;fillColor=none;align=center;verticalAlign=middle;whiteSpace=wrap;rounded=0;fontFamily=Helvetica;fontSize=24;" vertex="1" parent="FU7Yq_JdQGh8Oxi3G6t7-24">
          <mxGeometry x="175.91" y="157.5" width="60" height="30" as="geometry" />
        </mxCell>
        <mxCell id="FU7Yq_JdQGh8Oxi3G6t7-31" value="" style="group" vertex="1" connectable="0" parent="1">
          <mxGeometry x="30" y="430" width="285" height="230" as="geometry" />
        </mxCell>
        <mxCell id="FU7Yq_JdQGh8Oxi3G6t7-32" value="" style="rounded=1;whiteSpace=wrap;html=1;fontSize=14;" vertex="1" parent="FU7Yq_JdQGh8Oxi3G6t7-31">
          <mxGeometry y="60" width="285" height="170" as="geometry" />
        </mxCell>
        <mxCell id="FU7Yq_JdQGh8Oxi3G6t7-33" value="&lt;font style=&quot;font-size: 25px;&quot;&gt;Administration&lt;/font&gt;" style="text;html=1;strokeColor=none;fillColor=none;align=center;verticalAlign=middle;whiteSpace=wrap;rounded=0;fontSize=14;" vertex="1" parent="FU7Yq_JdQGh8Oxi3G6t7-31">
          <mxGeometry x="37.5" width="210" height="50" as="geometry" />
        </mxCell>
        <mxCell id="FU7Yq_JdQGh8Oxi3G6t7-34" value="" style="fontColor=#0066CC;verticalAlign=top;verticalLabelPosition=bottom;labelPosition=center;align=center;html=1;outlineConnect=0;fillColor=#CCCCCC;strokeColor=#6881B3;gradientColor=none;gradientDirection=north;strokeWidth=2;shape=mxgraph.networks.laptop;rounded=1;fontSize=24;" vertex="1" parent="FU7Yq_JdQGh8Oxi3G6t7-31">
          <mxGeometry x="165.00000000000006" y="100" width="81.82" height="45" as="geometry" />
        </mxCell>
        <mxCell id="FU7Yq_JdQGh8Oxi3G6t7-35" value="" style="fontColor=#0066CC;verticalAlign=top;verticalLabelPosition=bottom;labelPosition=center;align=center;html=1;outlineConnect=0;fillColor=#CCCCCC;strokeColor=#6881B3;gradientColor=none;gradientDirection=north;strokeWidth=2;shape=mxgraph.networks.desktop_pc;rounded=1;fontSize=24;" vertex="1" parent="FU7Yq_JdQGh8Oxi3G6t7-31">
          <mxGeometry x="75" y="100" width="45" height="90" as="geometry" />
        </mxCell>
        <mxCell id="FU7Yq_JdQGh8Oxi3G6t7-36" value="&lt;font style=&quot;font-size: 24px;&quot;&gt;2x&lt;/font&gt;" style="text;html=1;strokeColor=none;fillColor=none;align=center;verticalAlign=middle;whiteSpace=wrap;rounded=0;fontFamily=Helvetica;fontSize=17;" vertex="1" parent="FU7Yq_JdQGh8Oxi3G6t7-31">
          <mxGeometry x="5" y="130" width="60" height="30" as="geometry" />
        </mxCell>
        <mxCell id="FU7Yq_JdQGh8Oxi3G6t7-37" value="1x" style="text;html=1;strokeColor=none;fillColor=none;align=center;verticalAlign=middle;whiteSpace=wrap;rounded=0;fontFamily=Helvetica;fontSize=24;" vertex="1" parent="FU7Yq_JdQGh8Oxi3G6t7-31">
          <mxGeometry x="175.91" y="157.5" width="60" height="30" as="geometry" />
        </mxCell>
      </root>
    </mxGraphModel>
  </diagram>
</mxfile>
